<svg width="1200" height="630" viewBox="0 0 1200 630" fill="none" xmlns="http://www.w3.org/2000/svg">
  <defs>
    <linearGradient id="bg" x1="0" y1="0" x2="1200" y2="630" gradientUnits="userSpaceOnUse">
      <stop stop-color="#0F2E22"/>
      <stop offset="1" stop-color="#1B4332"/>
    </linearGradient>
    <linearGradient id="accent" x1="0" y1="0" x2="1" y2="1">
      <stop stop-color="#F59E0B"/>
      <stop offset="1" stop-color="#F77F00"/>
    </linearGradient>
  </defs>
  <rect width="1200" height="630" fill="url(#bg)"/>
  <circle cx="972" cy="146" r="168" fill="#D4A373" fill-opacity="0.12"/>
  <circle cx="110" cy="534" r="128" fill="#D4A373" fill-opacity="0.08"/>
  <rect x="72" y="72" width="170" height="170" rx="40" fill="#255742"/>
  <path d="M102 157C121 127 184 119 210 157C184 195 121 186 102 157Z" fill="white"/>
  <circle cx="140" cy="153" r="7" fill="#1B4332"/>
  <path d="M198 157L232 140L222 157L232 174L198 157Z" fill="#F59E0B"/>
  <path d="M165 118C181 105 200 98 218 97" stroke="#FDE68A" stroke-width="7" stroke-linecap="round"/>
  <circle cx="220" cy="96" r="8" fill="#FDE68A"/>
  <text x="72" y="332" fill="white" font-family="Inter, Arial, sans-serif" font-size="74" font-weight="800">POV Strike</text>
  <text x="72" y="404" fill="#E5E7EB" font-family="Inter, Arial, sans-serif" font-size="38" font-weight="700">Lebih Banyak Strike. Tanpa Nunggu Lama.</text>
  <text x="72" y="456" fill="#D1D5DB" font-family="Inter, Arial, sans-serif" font-size="28" font-weight="500">Essen pancing premium untuk perairan Indonesia.</text>
  <rect x="72" y="500" width="318" height="52" rx="26" fill="url(#accent)"/>
  <text x="105" y="534" fill="#111827" font-family="Inter, Arial, sans-serif" font-size="22" font-weight="800">10 Formula • 5 Target Ikan • COD</text>
  <rect x="845" y="148" width="196" height="358" rx="58" fill="#0F172A"/>
  <rect x="874" y="188" width="138" height="218" rx="30" fill="white"/>
  <rect x="887" y="202" width="112" height="190" rx="24" fill="#1B4332"/>
  <text x="943" y="250" text-anchor="middle" fill="white" font-family="Inter, Arial, sans-serif" font-size="24" font-weight="800">POV STRIKE</text>
  <rect x="906" y="270" width="74" height="22" rx="11" fill="#F59E0B"/>
  <text x="943" y="286" text-anchor="middle" fill="#111827" font-family="Inter, Arial, sans-serif" font-size="10" font-weight="800">ESSEN</text>
  <text x="943" y="334" text-anchor="middle" fill="white" font-family="Inter, Arial, sans-serif" font-size="28" font-weight="800">IKAN MAS</text>
  <text x="943" y="367" text-anchor="middle" fill="#D1D5DB" font-family="Inter, Arial, sans-serif" font-size="16" font-weight="600">Harian dan Galatama</text>
</svg>
